<?xml version="1.0" encoding="utf-8"?>
<svg viewBox="0 0 216.4144 232.00976" xmlns="http://www.w3.org/2000/svg">
  <defs>
    <linearGradient id="gradient-1" gradientUnits="userSpaceOnUse" x1="127.296" y1="5.396" x2="127.296" y2="175.433" spreadMethod="pad" gradientTransform="matrix(0.943665, 0, 0, 0.943665, 2.002875, 9.143121)">
      <stop offset="0" style="stop-color: rgba(255, 102, 0, 1)"/>
      <stop offset="1" style="stop-color: rgba(153, 61, 0, 1)"/>
    </linearGradient>
    <linearGradient id="gradient-2" gradientUnits="userSpaceOnUse" x1="57.922" y1="8.08" x2="57.922" y2="178.117" gradientTransform="matrix(0.943665, 0, 0, 0.943665, 5.603809, 28.172713)">
      <stop offset="0" style="stop-color: rgba(255, 102, 0, 1)"/>
      <stop offset="1" style="stop-color: rgba(153, 61, 0, 1)"/>
    </linearGradient>
    <linearGradient id="gradient-3" gradientUnits="userSpaceOnUse" x1="96.817" y1="24.54" x2="96.817" y2="184.205" spreadMethod="reflect" gradientTransform="matrix(-0.942724, -0.042146, 0.04091, -0.915074, 183.108618, 213.088047)">
      <stop offset="0" style="stop-color: rgba(238, 238, 238, 1)"/>
      <stop offset="1" style="stop-color: rgba(187, 187, 187, 1)"/>
    </linearGradient>
    <radialGradient id="gradient-4" gradientUnits="userSpaceOnUse" cx="89.836" cy="200.632" r="14.025" gradientTransform="matrix(4.259265, -3.23925, 4.689428, 6.166095, -1238.709961, -756.785217)">
      <stop offset="0" style="stop-color: rgba(238, 238, 238, 1)"/>
      <stop offset="1" style="stop-color: rgba(187, 187, 187, 1)"/>
    </radialGradient>
  </defs>
  <path style="fill: url(#gradient-2);" d="M 31.591 35.797 L 88.936 60.901 C 88.936 105.933 88.936 151.051 88.936 196.255 L 35.06 165.037 L 31.591 35.797 Z" transform="matrix(0.956305, -0.292372, 0.292372, 0.956305, -31.289513, 22.689147)"/>
  <path style="fill: url(#gradient-1);" d="M 93.456 174.693 L 150.8 149.589 C 150.8 104.557 150.8 59.44 150.8 14.235 L 96.925 45.454 L 93.456 174.693 Z" transform="matrix(0.956305, -0.292372, 0.292372, 0.956305, -22.282199, 39.834431)"/>
  <path style="fill: url(#gradient-3);" d="M 88.058 40.134 L 110.132 40.134 L 99.537 190.804 L 86.817 190.804 L 88.058 40.134 Z" transform="matrix(0.956305, -0.292372, 0.292372, 0.956305, -29.457018, 33.836632)"/>
  <circle style="fill: url(#gradient-4);" cx="84.775" cy="189.329" r="11.657" transform="matrix(0.956305, -0.292372, 0.292372, 0.956305, -17.693647, 47.992458)"/>
</svg>